<?xml version="1.0" standalone="no"?>
<!DOCTYPE svg PUBLIC "-//W3C//DTD SVG 20010904//EN"
 "http://www.w3.org/TR/2001/REC-SVG-20010904/DTD/svg10.dtd">
<svg version="1.0" xmlns="http://www.w3.org/2000/svg"
 width="72.000000pt" height="72.000000pt" viewBox="0 0 72.000000 72.000000"
 preserveAspectRatio="xMidYMid meet">
<metadata>
Created by potrace 1.14, written by Peter Selinger 2001-2017
</metadata>
<g transform="translate(0.000000,72.000000) scale(0.100000,-0.100000)"
fill="#000000" stroke="none">
<path d="M345 638 c-55 -5 -102 -14 -105 -19 -11 -16 -103 -550 -96 -556 3 -3
36 -2 73 3 l68 9 8 41 c7 41 9 42 55 47 49 5 61 -2 62 -38 1 -37 12 -42 82
-36 37 4 69 9 73 12 3 4 -17 126 -45 273 -27 147 -50 269 -50 271 0 3 -6 4
-12 4 -7 -1 -58 -6 -113 -11z m34 -339 c1 -15 -45 -36 -55 -27 -4 5 16 148 23
168 5 13 31 -99 32 -141z"/>
</g>
</svg>
